<svg xmlns="http://www.w3.org/2000/svg" viewBox="0 0 95.6 164.97"><defs><style>.cls-1{fill:#e52722;}.cls-2{fill:#454d55;}.cls-3{fill:#dddede;}.cls-4{fill:#212121;opacity:0.4;}</style></defs><title>Logo MUREAtivo 3</title><g id="Camada_2" data-name="Camada 2"><g id="Camada_1-2" data-name="Camada 1"><path class="cls-1" d="M48.61,62.84s-46-1.48-46,23c0,27.73,9.14,79.69,46,79.15s43.62-73.39,44-76.64C92.64,88.32,94.57,65,48.61,62.84Z"/><path class="cls-2" d="M91.54,82a.86.86,0,0,1-.19.15l-.58.39c-.51.35-1.29.82-2.31,1.4a54.41,54.41,0,0,1-9.07,4,74.35,74.35,0,0,1-14.34,3.33,127.79,127.79,0,0,1-18,1,165.89,165.89,0,0,1-18-.91A49.41,49.41,0,0,1,14.8,87.67a32.05,32.05,0,0,1-8.36-5.34,25.57,25.57,0,0,1-1.91-1.92l-.45-.54c-.1-.12-.15-.19-.14-.19s.07,0,.18.16l.49.5c.43.44,1.08,1.07,2,1.84A33.44,33.44,0,0,0,15,87.33a50,50,0,0,0,14.14,3.59,172.92,172.92,0,0,0,18,.87,133.13,133.13,0,0,0,17.93-1,76,76,0,0,0,14.29-3.21,59.12,59.12,0,0,0,9.09-3.86c1-.55,1.82-1,2.35-1.31l.61-.35A1.18,1.18,0,0,1,91.54,82Z"/><path class="cls-2" d="M63.74,91.24a3.28,3.28,0,0,1,.07.68c0,.45,0,1.12,0,2a33.2,33.2,0,0,1-.76,7.22,24.87,24.87,0,0,1-1.57,4.78,19.78,19.78,0,0,1-3,4.93,18.15,18.15,0,0,1-4.91,4.1,17.09,17.09,0,0,1-3.12,1.35,14.31,14.31,0,0,1-3.47.58,12.93,12.93,0,0,1-6.67-1.62,16.62,16.62,0,0,1-4.88-4.14,21.19,21.19,0,0,1-4.25-9.86A35.58,35.58,0,0,1,30.73,94c0-.86.07-1.52.11-2a3.23,3.23,0,0,1,.09-.69A3.76,3.76,0,0,1,31,92c0,.5,0,1.16,0,2a39,39,0,0,0,.62,7.18,21.28,21.28,0,0,0,4.26,9.62,16.2,16.2,0,0,0,4.76,4,12.47,12.47,0,0,0,6.4,1.55,13.81,13.81,0,0,0,3.34-.56,16.57,16.57,0,0,0,3-1.3,18,18,0,0,0,4.8-4,19.8,19.8,0,0,0,3-4.8,25.29,25.29,0,0,0,1.6-4.69,36.62,36.62,0,0,0,.92-7.14c0-.81,0-1.46.05-2A4.67,4.67,0,0,1,63.74,91.24Z"/><path class="cls-2" d="M74.69,147.73c-.06,0-.36-1-1.15-2.7a30.1,30.1,0,0,0-4.25-6.68,29.36,29.36,0,0,0-9.15-7.26,28.81,28.81,0,0,0-27.55,1A29.64,29.64,0,0,0,24,140.06a30.45,30.45,0,0,0-3.73,7c-.65,1.76-.87,2.79-.93,2.77a3.72,3.72,0,0,1,.14-.74c.1-.49.31-1.2.6-2.1a28.46,28.46,0,0,1,3.62-7.13,29.3,29.3,0,0,1,8.63-8.13,29,29,0,0,1,28-1.06,29.47,29.47,0,0,1,9.22,7.45A28.79,28.79,0,0,1,73.73,145a19.75,19.75,0,0,1,.75,2A5.91,5.91,0,0,1,74.69,147.73Z"/><path class="cls-3" d="M67.54,123.4l2.11-9.5H88.24c-.66,2.81-1.59,6.1-2.64,9.6Z"/><path class="cls-3" d="M26,123.4l-2.12-9.5H5.28c.66,2.81,1.21,6.1,2.27,9.6Z"/><path class="cls-4" d="M90.22,79.68C85.78,72.42,74,64,48.61,62.84c0,0-28.45-.92-40.59,10.59a26.87,26.87,0,0,0-3.11,3.84c-.74,1.38,9.5,13.66,42.37,12.61C81.2,88.79,90.22,79.68,90.22,79.68Z"/><path class="cls-2" d="M1.83,36.3C.2,32.65-.59,28.47.52,24.63s4.41-7.19,8.39-7.54"/><path class="cls-1" d="M7.59,17.32c0,.07-.67.61-1.63,1.7a20.26,20.26,0,0,0-3.1,4.67A45,45,0,0,0,.92,29a17.07,17.07,0,0,1-.66,2.27,7.85,7.85,0,0,1,.31-2.36,30.25,30.25,0,0,1,1.82-5.44,16.82,16.82,0,0,1,3.31-4.7A5.72,5.72,0,0,1,7.59,17.32Z"/><path class="cls-2" d="M93.77,36.3c1.63-3.65,2.42-7.83,1.31-11.67s-4.41-7.19-8.39-7.54"/><path class="cls-1" d="M88,17.32a5.72,5.72,0,0,1,1.89,1.45,16.82,16.82,0,0,1,3.31,4.7A30.25,30.25,0,0,1,95,28.91a7.85,7.85,0,0,1,.31,2.36A17.07,17.07,0,0,1,94.68,29a45,45,0,0,0-1.94-5.31A20.26,20.26,0,0,0,89.64,19C88.68,17.93,88,17.39,88,17.32Z"/><path class="cls-1" d="M5.51,54.42A19.33,19.33,0,0,1,.38,37C3,23.62,12.78-.5,48.61,0,86.21.54,93.26,26.56,94.48,39.1A19.55,19.55,0,0,1,90.1,53.46c-5.6,6.75-17.47,15.46-41.49,15.45C24.82,68.9,12,61,5.51,54.42Z"/><path class="cls-2" d="M31.87,1.6s.09.14.21.44l.51,1.32c.45,1.14,1.08,2.8,2.06,4.75a20.86,20.86,0,0,0,4.5,6.11,12,12,0,0,0,8.36,3.37,14,14,0,0,0,8.42-3.45,21.57,21.57,0,0,0,4.74-5.93,45.05,45.05,0,0,0,2.26-4.66,18.5,18.5,0,0,1,.76-1.75,1.47,1.47,0,0,1-.12.49c-.09.3-.24.76-.46,1.33A36,36,0,0,1,61,8.39a21.55,21.55,0,0,1-4.76,6.11,14.33,14.33,0,0,1-8.72,3.61,11,11,0,0,1-4.86-1,14,14,0,0,1-3.84-2.55,20.57,20.57,0,0,1-4.5-6.3A42.06,42.06,0,0,1,32.4,3.43c-.19-.58-.33-1-.42-1.35A1.61,1.61,0,0,1,31.87,1.6Z"/><path class="cls-2" d="M72.37,52.91c-17.44,4.26-34.47,4.42-51.05.18A14.1,14.1,0,0,1,10.77,39.4v-.24A14.16,14.16,0,0,1,24.93,25H69A14.16,14.16,0,0,1,83.13,39.16h0A14.15,14.15,0,0,1,72.37,52.91Z"/><path class="cls-3" d="M33.93,41.88a3.21,3.21,0,1,1-2.66-3.68A3.21,3.21,0,0,1,33.93,41.88Z"/><path class="cls-3" d="M70.71,40a3.21,3.21,0,1,1-2.66-3.68A3.21,3.21,0,0,1,70.71,40Z"/><path class="cls-3" d="M56.59,40.43a4.42,4.42,0,0,1-.48,2.79,6.67,6.67,0,0,1-1.88,2.45A6.27,6.27,0,0,1,50.76,47a6.12,6.12,0,0,1-3.6-.83A6.44,6.44,0,0,1,45,44a4.34,4.34,0,0,1-.79-2.69,13.42,13.42,0,0,0,1.17,2.43,6.49,6.49,0,0,0,2.07,1.89,5.85,5.85,0,0,0,3.27.7,6,6,0,0,0,3.16-1.18A6.74,6.74,0,0,0,55.71,43,14.83,14.83,0,0,0,56.59,40.43Z"/></g></g></svg>